<?xml version="1.0" encoding="utf-8"?>
<!-- Generator: Adobe Illustrator 18.1.0, SVG Export Plug-In . SVG Version: 6.00 Build 0)  -->
<svg version="1.1" id="Layer_1" xmlns="http://www.w3.org/2000/svg" xmlns:xlink="http://www.w3.org/1999/xlink" x="0px" y="0px"
	 viewBox="0 0 640 640" enable-background="new 0 0 640 640" xml:space="preserve">
<linearGradient id="SVGID_1_" gradientUnits="userSpaceOnUse" x1="450.1003" y1="-36.3501" x2="190.6897" y2="676.375" gradientTransform="matrix(1 0 0 -1 0 640)">
	<stop  offset="0" style="stop-color:#383732"/>
	<stop  offset="0.5456" style="stop-color:#605F5B"/>
	<stop  offset="1" style="stop-color:#706F6B"/>
</linearGradient>
<path fill="url(#SVGID_1_)" d="M530.5,640H110.2C49.6,640,0.4,590.8,0.4,530.1V109.8C0.4,49.1,49.6,0,110.2,0h420.3
	c60.7,0,109.9,49.2,109.9,109.9v420.3C640.4,590.8,591.2,640,530.5,640z"/>
<linearGradient id="SVGID_2_" gradientUnits="userSpaceOnUse" x1="431.4076" y1="12.8984" x2="207.8971" y2="626.9887" gradientTransform="matrix(-1 0 0 1 640 0)">
	<stop  offset="0" style="stop-color:#383732;stop-opacity:0.3"/>
	<stop  offset="0.3074" style="stop-color:#3C3B36;stop-opacity:0.5152"/>
	<stop  offset="0.6288" style="stop-color:#484743;stop-opacity:0.7402"/>
	<stop  offset="0.9557" style="stop-color:#5C5C58;stop-opacity:0.969"/>
	<stop  offset="1" style="stop-color:#605F5B"/>
</linearGradient>
<path fill="url(#SVGID_2_)" d="M111.7,52H529c32.8,0,59.3,26.6,59.3,59.3v417.3c0,32.8-26.6,59.3-59.3,59.3H111.7
	c-32.8,0-59.3-26.6-59.3-59.3V111.3C52.4,78.5,78.9,52,111.7,52z"/>
<path fill="#383732" d="M61.4,544.7V113.3c0-28.9,23.4-52.3,52.3-52.3h431.4c7.9,0,15.4,1.8,22.1,4.9C556.9,57.2,543.6,52,529,52
	H111.7c-32.8,0-59.3,26.6-59.3,59.3v417.3c0,14.5,5.2,27.8,13.9,38.2C63.1,560.1,61.4,552.6,61.4,544.7z"/>
<path opacity="0.27" fill="#FFFFFF" enable-background="new    " d="M579.4,95.3v431.4c0,28.9-23.4,52.3-52.3,52.3H95.7
	c-7.9,0-15.4-1.8-22.1-4.9c10.3,8.7,23.6,13.9,38.2,13.9H529c32.8,0,59.3-26.6,59.3-59.3V111.3c0-14.5-5.2-27.8-13.9-38.2
	C577.6,79.9,579.4,87.4,579.4,95.3z"/>
<path fill="#FB6648" enable-background="new    " d="M377.4,486c-7.2,1.4-14.3,3.7-21.6,4.1c-9.3,0.5-18.7-1-28-0.6
	c-11.1,0.5-22.1,2.2-33.1,3.1c-2,0.2-4-0.6-7-1.2c0,9.2,0.4,18.1-0.1,26.9c-0.5,8.8-1.7,17.5-2.7,26.2c-0.7,0-1.4,0-2,0
	c-0.8-4.8-2.2-9.6-2.4-14.4c-0.4-9,0-18.1-0.2-27.1c-0.1-5.2-1.5-10.1-4.6-14.1c0.3-1.8,1-3.6,1-5.4c0.1-77.9,0-155.9,0.1-233.8
	c0-3.7-1.3-5.4-4.8-5.4c-3.6,0-7.3-0.1-10.9,0c-1,0-2.6,0.2-3,0.8c-2.9,4.6-7.4,3.2-11.4,3.3c-18.8,0.4-37.5,0.7-56.3,1.1
	c-5.7,0.1-11.9-0.3-11.4,9.1c-0.5-0.2-0.9-0.4-1.4-0.5c-0.6-1.5-1.5-2.9-1.9-4.4c-0.8-3-2.1-4.1-5.8-3.9c-6.3,0.5-12.7-0.2-19-0.6
	c-1.1-0.1-2.1-1.7-3.2-2.6c1.2-0.7,2.3-1.9,3.5-2c4.1-0.3,8.2,0.1,12.2-0.3c1.2-0.1,3.1-1.6,3.2-2.6c0.5-5.4,0.8-10.8,0.7-16.3
	c0-2.7-0.6-5.5-1.6-7.9c-1.5-3.7-2.4-7,0.2-10.7c0.7-0.9,0.5-2.6,0.4-3.9c-0.4-3.8-0.9-7.5-1.4-11.3c-0.5-0.1-1-0.3-1.5-0.4
	c-0.6,2-1.6,4-1.8,6c-0.8,9.8-1.4,19.6-2.1,29.4c0,0.5-0.4,1.1-0.5,1.6c-0.5,0-0.9,0-1.4,0c-0.2-6-0.7-12-0.6-17.9
	c0.2-8.3,0.9-16.6,1.4-24.9c0.3-4.4-1.7-7.1-6.2-7.2c-4.7-0.2-9.3,0.3-14,0.3c-3,0-7.3,0.3-7.3-3.4c0-4,4.4-3.1,7.3-3
	c4.2,0,8.5,0.3,12.7,0.5c4,0.3,7.5,0,7.5-5.2c0.6,0.1,0.9,0.1,1.1,0.3c1.5,1.4,3,2.8,4.5,4.2c0.5-2,0.9-4,1.4-6
	c0.4-1.6,1-3.1,1.5-4.7c1.5,0.7,3,1.4,4.5,2.1c1.5,0.7,2.9,2.2,4.4,2.2c29.8-0.1,59.6-0.4,89.4-0.7c14.2-0.2,28.4-0.5,42.6-1
	c13.1-0.5,26.3-1.2,39.4-1.9c3.7-0.2,5.3-1.7,5.5-5.9c0.4-8.8,1.6-17.6,2.5-26.4c0.4,0,0.8-0.1,1.3-0.1c0.4,2.8,1,5.7,1.2,8.5
	c0.6,6.6,1,13.3,1.5,19.9c0.2,3.4,1.9,5.3,5.4,5.5c1.7,0.1,3.3,0.4,5,0.4c31.8,0.3,63.5,0.6,95.3,1c4,0.1,6.5-0.6,6.2-5.3
	c-0.1-0.8,1.3-2.5,1.9-2.5c1.1,0.1,3,1,3.2,1.8c1.9,9.7,8.8,8,15.5,7.4c3-0.3,6,0,9,0.4c1.1,0.1,2,1.3,3,1.9
	c-0.9,0.9-1.8,2.4-2.8,2.5c-4.3,0.5-8.7,1-13,0.6c-5.4-0.5-9.3,2.5-9.2,7.9c0.3,14.8,0.6,29.6,0.7,44.5c0,5-0.3,10-0.8,14.9
	c-0.4,4.2,1.5,5.9,5.5,5.7c4.1-0.2,8.1-0.6,12.2-0.7c4.2,0,8.5,0.1,12.6,0.5c1.2,0.1,2.4,1.5,3.5,2.2c-1.2,1-2.2,2.1-3.5,2.9
	c-0.9,0.5-2,0.6-3.1,0.6c-13,0.1-26,0.3-38.9,0c-8.4-0.2-16.9-1.4-25.3-1.6c-9.3-0.3-18.7,0.6-27.7-3.3c-2-0.9-4.8-0.4-7.2-0.3
	c-11,0.1-22.1,0-33.1,0.3c-6.9,0.2-7,0.4-6.9,7.4c0.1,38.9,0.2,77.8,0.4,116.7c0,10.6,0.5,21.2,0.5,31.8c0,8.8-0.9,17.5-0.7,26.3
	c0.3,14.2,1.1,28.4,1.7,42.6c0.1,1.4,0,2.7,0,4.1c-0.4,8.1,0.5,9.3,8.5,10.6C377.2,485.2,377.3,485.6,377.4,486z M268,193.5
	c-5.3-0.8-8.4,3.5-12.4,5.5c-8.9,4.7-17.6,9.7-26.3,14.8c-2.3,1.3-4.1,3.4-6.1,5.1c0.4,0.5,0.7,1,1.1,1.5c2.6-1.3,5.4-2.3,7.7-4
	c3.9-3,7.9-4.4,12.9-4.4c2.4,0,5.2-2,7.2-3.8c4.7-3.9,9.1-8.2,13.6-12.4C266.5,195.1,267.2,194.2,268,193.5c0.7,0,1.4,0.3,2.1,0.3
	c9-1.1,15.1-7.9,22.7-11.7c0.1-0.1,0-0.5-0.1-1.5C282.6,181.4,274.9,186.7,268,193.5z M296.5,224c4-0.4,7.3,0.2,9.6-1.1
	c5.8-3,11.2-6.9,16.9-10.1c8.8-5,17.6-9.7,26.5-14.5c2.6-1.4,4.9-2.7,2.1-6.5c-7.7,4-15.2,8-22.8,12c-3.7,2-7.3,5.1-11.3,5.6
	c-8.3,1-12.1,9.1-19.5,11.1C297.7,220.5,297.5,221.7,296.5,224z M304.6,448.3c0.4,0.4,0.8,0.7,1.2,1.1c5.3-2.5,10.6-4.7,15.7-7.5
	c7.4-4,14.5-8.7,21.9-12.6c3.5-1.8,4.8-4.4,4.9-7.9c0-1.4-0.6-2.8-1-4.2c-1.4,0.4-3,0.4-4.1,1.2c-5.7,4-11.4,7.9-16.9,12.3
	c-5.7,4.6-10.4,10.4-17.5,13.3C307.1,444.6,305.9,446.8,304.6,448.3z M424,176.6c-0.2-0.6-0.3-1.1-0.5-1.7
	c-4.1,0.9-8.4,1.2-12.2,2.9c-6.8,3.1-13.2,7-19.9,10.4c-4,2-8.2,3.7-12.3,5.5c-3.5,1.6-7.1,3.2-10.5,5.1c-2.5,1.3-4.9,2.9-7,4.7
	c-0.5,0.4-0.4,2.3,0.1,3.1c0.2,0.4,2,0.6,2.7,0.2c6-3,12-6.3,18-9.4c5.4-2.8,10.8-5.7,16.4-8.3c8-3.8,16.1-7.5,24.1-11.3
	C423.3,177.6,423.6,177,424,176.6z M304.3,420.2c0.2,0.3,0.5,0.7,0.7,1c1.5-0.6,3-1,4.3-1.7c11.8-6.1,23.6-12.3,35.4-18.3
	c3.8-1.9,3.1-5,1.8-7.7c-1.6-3.6-3.8-1-5.5,0.2c-4.7,3.3-9.2,6.8-13.9,10.1c-6.7,4.6-13.5,8.9-20.2,13.4
	C305.9,417.8,305.2,419.1,304.3,420.2z M298.1,206.2c0.3,0.4,0.5,0.7,0.8,1.1c6.8-3,13.8-5.6,20.3-9.1c8.7-4.8,16.8-10.6,26.8-12.9
	c2-0.5,3.8-1.9,5.4-3.3c0.9-0.7,1.1-2.2,1.7-3.3c-1.2-0.3-2.5-0.8-3.7-0.8c-1,0-2,0.5-3,1c-9.8,4.9-19.6,9.7-29.3,14.7
	c-5.4,2.8-10.7,6-16,9.1C299.8,203.5,299,205,298.1,206.2z M315.4,304.6c9.9-4.9,19.9-9.6,29.6-14.7c2.6-1.4,4.1-4.3,2.5-7.6
	C340,283.5,315.4,300.7,315.4,304.6z M348.2,326.1c-10.5,2.7-27.3,15.5-29.1,22c5.4-3.1,10.9-6.3,16.6-9.3c3.3-1.8,6.9-3.1,10.2-4.9
	C349.1,332.1,350.3,329.5,348.2,326.1z M388.9,221.9c3.6,2.3,9,3,12.8,1.1c7.3-3.6,14.4-7.7,21.7-11.6c1.3-0.7,2.7-1.1,4.1-1.6
	c-0.7-0.9-1.4-1.7-2.1-2.6C413.4,212,401.4,216.8,388.9,221.9z M322.4,181.3c-0.3-0.8-0.6-1.7-0.8-2.5c-4.2,1.1-8.5,1.9-12.6,3.3
	c-2.6,0.9-5.2,2.2-7.5,3.7c-3,1.9-6,4-8.7,6.3c-0.6,0.5-0.8,2.3-0.4,3.1c0.3,0.6,2.1,1.1,2.9,0.8c2.5-1.2,4.9-2.7,7.3-4.2
	c3.2-1.9,6.3-4,9.6-5.8C315.4,184.3,319,182.9,322.4,181.3z M318.8,259.6c2,0,2.4,0.1,2.6,0c8-3.2,16.1-6.4,24.1-9.7
	c0.8-0.3,1.3-1.4,1.9-2.1c-1.1-0.6-2.1-1.8-3.2-1.8c-8.4-0.2-15.7,2.8-21.9,8.2C320.9,255.2,320.3,257.2,318.8,259.6z M321.8,278.3
	c0.2,0.3,0.5,0.6,0.7,0.9c2.9-1,5.9-1.8,8.6-3.2c5.3-2.6,10.6-5.2,15.4-8.3c1.2-0.8,0.8-3.9,1.1-6c-1-0.1-2.5-0.7-3.1-0.3
	C336.9,267,329.4,272.7,321.8,278.3z M249.3,220c0.2,0.5,0.3,1,0.5,1.6c1.9-0.5,4.5-0.3,5.7-1.6c2.9-3.1,6.6-3.5,10.1-5
	c5.3-2.3,10.1-5.9,14.8-9.3c0.9-0.7,0.8-2.8,1.2-4.3c-1.3,0.2-2.9,0-4,0.6c-7.7,4.6-15.4,9.3-23,14.1
	C252.8,217.3,251.1,218.7,249.3,220z M323.2,386.4c0.4,0.1,0.9,0.3,1.2,0.2c5.3-2.7,10.8-5.3,15.9-8.2c2.1-1.2,3.9-3.2,5.4-5.2
	c0.6-0.7-0.1-2.4-0.2-3.7c-1.1,0.2-2.3,0.2-3.3,0.6c-2.2,1-4.5,1.8-6.3,3.3c-4.5,3.8-8.7,8-13.1,12.1
	C322.8,385.6,323.1,386.1,323.2,386.4z M325.3,318.6c0.4,0.5,0.7,1,1.1,1.5c6.6-3.7,13.4-7.3,19.8-11.4c1.5-1,1.7-3.9,2.6-5.9
	c-1.9,0.1-4.3-0.4-5.5,0.5C337.1,308.2,331.3,313.5,325.3,318.6z M432.7,188.3c11-3.9,22.1-7.7,34-11.9
	C459.6,172.8,439.2,180.1,432.7,188.3z M388,178.9c-0.2-0.7-0.3-1.3-0.5-2c-2.8,0.2-6.4-0.5-8.4,0.9c-5.2,3.8-10.3,7.1-16.8,8.1
	c-1,0.2-1.5,2.6-2.3,4c1.5,0.2,3.1,1,4.3,0.5c2.8-1,5.4-2.6,8.1-3.9C377.6,184,382.8,181.4,388,178.9z M465.5,233.2
	c3.7,0.3,6.4-0.1,6.8-3.4c0.4-3.2,0-6.6-0.6-9.8c-0.2-1-2.5-2.7-2.7-2.5c-3.1,2.3-5.9,4.9-9.8,8.1C464.2,227,469.1,227,465.5,233.2z
	 M323.1,362.9c0.4,0.6,0.7,1.3,1.1,1.9c1.6-0.5,3.4-0.7,4.8-1.5c4.9-3.1,9.6-6.5,14.4-9.8c0.7-0.5,1.7-1,2-1.8
	c0.5-1.2,0.5-2.5,0.7-3.8c-1.2,0-2.7-0.4-3.5,0.2c-3.7,2.4-7.3,4.9-10.9,7.6C328.8,358,326,360.5,323.1,362.9z M309.4,481.1
	c0.2-0.7,0.3-1.4,0.5-2c-4.3-2.6-8.6-5.2-14-8.5c0.3,4.1,0.2,6.6,0.7,9c0.2,1.1,1.6,2.7,2.4,2.7
	C302.5,482.2,305.9,481.5,309.4,481.1z M347.7,211.2c-8.3,3.9-16.5,7.8-24.8,11.7C330.1,225,346.9,217.2,347.7,211.2z M324.9,455.9
	c0.3,0.3,0.6,0.5,0.9,0.8c7.1-3.8,14.1-7.6,21.1-11.5c0.7-0.4,0.6-2,0.8-3.1c-1.2,0.1-2.7-0.2-3.7,0.3c-6.1,3.5-12.1,7.3-18,11
	C325.5,453.9,325.3,455.1,324.9,455.9z M452.4,210.5c5.9,2.5,17.1-2.7,18.7-8.5C464.4,205.1,458.4,207.8,452.4,210.5z M367,217.8
	c0.2,0.4,0.4,0.8,0.5,1.2c7.1,0.2,16-4.7,17.9-10.7C378.9,211.7,372.9,214.8,367,217.8z M309,342.4c-4.7-1.5-10.4,1.5-11.4,4.6
	c-0.2,0.7-0.2,1.9,0.3,2.4c0.4,0.4,1.8,0.6,2.3,0.2C303.2,347.3,306.1,344.8,309,342.4z M310.6,276.6c-0.4-0.7-0.9-1.4-1.3-2.1
	c-3.7,2.3-7.5,4.6-11.1,7c-0.4,0.2-0.2,1.7,0.2,2.4c0.2,0.4,1.5,0.6,2,0.3C303.8,281.7,307.1,279.1,310.6,276.6z M467,237
	c2.6,2.9,4.4,4.9,6.2,6.9c0.5-0.2,0.9-0.5,1.4-0.7c-0.9-2.7-1.9-5.3-2.8-8C470.3,235.7,468.8,236.2,467,237z M165.1,187.3
	c1.7-3.6,2.9-6.6-0.8-9.4C161.9,182.1,162.1,184.2,165.1,187.3z M448.2,226.1c3,1.7,6,2.3,9.3-0.2C453.9,222,451.1,225,448.2,226.1z
	 M302.9,433.3c-2.4,1.7-4.4,3-6.2,4.5c-0.1,0.1,0.7,1.1,1,1.7c1.9-1.4,3.7-2.8,5.5-4.3C303.3,435.1,303.2,434.9,302.9,433.3z"/>
</svg>
